PathFileType	4	(X/Y/Z)	C:/Users/opensim2020/Desktop/walking_exp_matlab/subject06_walking11_run.trc																																																																																																																																								
DataRate	CameraRate	NumFrames	NumMarkers	Units	OrigDataRate	OrigDataStartFrame	OrigNumFrames																																																																																																																																				
100	100	4	46	mm	100	199	106																																																																																																																																				
Frame#	Time	LKNE			RKNE			RFRM			RWRA			RWRB			RELB			RUPA			RSHO			LWRA			RFIN			RFHD			CLAV			RASI			RTHI			LSHO			LTHI			RBHD			C7			LTIB			LANK			LTOE			LBHD			RTIB			RBAK			LHEE			RANK			STRN			RHEE			RTOE			T10			LUPA			LFHD			LPSI			RPSI			LASI			LFRM			LWRB			LFIN			LELB			*39			*40			*41			*42			*43			*44			*45		
		X1	Y1	Z1	X2	Y2	Z2	X3	Y3	Z3	X4	Y4	Z4	X5	Y5	Z5	X6	Y6	Z6	X7	Y7	Z7	X8	Y8	Z8	X9	Y9	Z9	X10	Y10	Z10	X11	Y11	Z11	X12	Y12	Z12	X13	Y13	Z13	X14	Y14	Z14	X15	Y15	Z15	X16	Y16	Z16	X17	Y17	Z17	X18	Y18	Z18	X19	Y19	Z19	X20	Y20	Z20	X21	Y21	Z21	X22	Y22	Z22	X23	Y23	Z23	X24	Y24	Z24	X25	Y25	Z25	X26	Y26	Z26	X27	Y27	Z27	X28	Y28	Z28	X29	Y29	Z29	X30	Y30	Z30	X31	Y31	Z31	X32	Y32	Z32	X33	Y33	Z33	X34	Y34	Z34	X35	Y35	Z35	X36	Y36	Z36	X37	Y37	Z37	X38	Y38	Z38	X39	Y39	Z39	X40	Y40	Z40	X41	Y41	Z41	X42	Y42	Z42	X43	Y43	Z43	X44	Y44	Z44	X45	Y45	Z45	X46	Y46	Z46
																																																																																																																																											
14	0.13	111.41879	433.3255	1423.44922	362.44205	524.14661	1178.72363	506.76224	1081.27466	1331.85913	407.89316	1059.91309	1229.77966	442.2908	1004.23169	1241.91846	541.02399	1161.20105	1392.13135	499.36725	1256.61353	1345.27112	384.48575	1360.06079	1211.16809	108.02125	1105.13391	1141.67969	413.7066	1005.59875	1164.9928	308.67239	1583.82556	1090.46033	236.01166	1309.77393	1157.51062	332.27145	926.03473	1260.14111	390.63351	634.48016	1237.92603	77.29583	1363.58826	1185.21863	78.40102	590.77228	1377.4115	300.17651	1552.41003	1227.35107	223.526	1409.82129	1246.39209	108.83302	350.25034	1664.97839	137.62204	295.93381	1831.51025	158.20107	152.21707	1835.25049	170.89836	1556.42322	1222.151	351.61377	263.69446	1238.59082	283.9325	1272.43835	1360.65613	175.11136	339.42813	1849.573	294.74606	88.71342	1287.84924	230.64543	1128.81177	1164.06738	253.72957	75.40623	1331.11938	279.14496	31.13289	1137.396	203.09123	1111.03967	1368.40686	-36.65498	1208.35193	1243.08008	176.9028	1593.11487	1082.94727	123.51442	967.13379	1387.08374	289.20969	978.85626	1400.08777	117.17789	899.96741	1246.05945	1.2	1059.25879	1195.71875	96.64996	1036.48181	1131.66846	146.32301	1070.19348	1065.88867	-77.57851	1117.27502	1283.36633	NaN	NaN	NaN	231.20857	1645.20935	1179.93103	NaN	NaN	NaN	NaN	NaN	NaN	NaN	NaN	NaN	NaN	NaN	NaN	NaN	NaN	NaN
15	0.14	111.77388	424.06625	1367.2876	361.90903	514.64111	1152.25	507.99289	1067.64868	1284.60168	406.72522	1050.9342	1184.36926	440.48572	994.39307	1194.09106	544.04419	1145.89209	1346.58545	503.27744	1242.72876	1304.05103	386.46198	1354.12878	1175.43884	104.86816	1092.05383	1111.0293	411.28964	998.37146	1117.67395	308.65344	1581.63647	1058.07556	236.33459	1305.4718	1122.56091	334.03134	922.34045	1225.51013	391.47107	627.95898	1208.24744	77.55509	1359.70142	1153.26257	78.95592	582.05011	1330.70251	301.6496	1547.90967	1194.51953	225.27391	1405.05981	1213.00403	108.68481	346.42117	1606.75122	136.52078	299.34094	1774.18762	152.45824	156.5056	1777.43201	172.33601	1552.13953	1190.896	351.85635	258.88318	1220.99329	286.89999	1267.15479	1326.7605	175.18059	342.09912	1792.60901	295.57089	86.89137	1282.03674	230.369	1123.98535	1128.62683	254.60503	73.816	1329.55188	279.30905	31.08713	1135.48901	203.66872	1105.78955	1332.97314	-35.93326	1205.07678	1214.6886	176.8576	1591.11719	1052.1748	121.79876	961.24463	1351.98242	287.9946	974.37988	1366.10156	117.62352	895.34601	1210.15515	-1.72182	1051.46973	1169.09094	91.7032	1023.3587	1103.974	140.28856	1052.88684	1035.79138	-76.47289	1115.50769	1256.86389	NaN	NaN	NaN	232.24567	1641.49023	1149.45947	NaN	NaN	NaN	NaN	NaN	NaN	NaN	NaN	NaN	NaN	NaN	NaN	NaN	NaN	NaN
16	0.15	111.86449	416.81995	1310.44482	362.32785	503.96686	1127.94653	508.10492	1054.38452	1236.45996	405.23944	1042.03247	1138.31238	438.09479	985.12439	1145.50256	546.65564	1130.43445	1299.89001	507.31744	1228.01233	1261.88037	388.55695	1348.58582	1139.49597	100.56326	1079.46899	1081.65527	407.89728	991.71985	1069.90942	308.43927	1579.78235	1025.48291	236.38844	1301.44556	1087.34167	335.01648	918.10553	1191.64343	390.4346	619.474	1180.68933	76.99533	1356.12842	1121.73535	78.98525	574.67279	1283.74109	303.23758	1543.97058	1161.66211	227.00095	1400.76563	1179.64087	107.75156	344.76114	1543.77905	135.60771	300.73126	1714.18335	147.99615	158.30994	1714.28149	173.83704	1548.29993	1159.66516	351.18564	253.66457	1201.59631	289.59207	1262.02258	1292.9812	175.04568	342.65695	1733.52551	295.95877	85.42239	1277.12939	229.82008	1119.32239	1093.41516	256.27298	75.30325	1328.89319	278.96307	31.00273	1135.51611	204.54582	1100.6731	1298.16577	-34.88457	1201.18579	1187.82349	176.72771	1589.49048	1021.60895	120.39973	955.6864	1317.74072	287.25281	969.92407	1332.3479	118.11467	890.70178	1174.43103	-5.0815	1043.91333	1144.19104	85.37318	1010.85211	1078.0741	132.77719	1035.49414	1007.27515	-75.53411	1113.99817	1231.97815	NaN	NaN	NaN	233.29286	1638.17871	1118.8689	NaN	NaN	NaN	NaN	NaN	NaN	NaN	NaN	NaN	NaN	NaN	NaN	NaN	NaN	NaN
17	0.16	112.02947	412.27936	1252.21155	361.69498	494.513	1103.44922	507.267	1042.62207	1187.10046	401.08936	1034.88684	1091.10999	434.69397	977.33649	1096.06885	548.29156	1115.58423	1251.77563	511.04343	1213.43225	1218.24365	390.62228	1343.53137	1102.55811	94.99729	1068.36536	1053.51953	403.35147	986.38379	1021.46088	308.04858	1578.28357	992.63776	236.01884	1298.28992	1052.36719	335.72839	913.45953	1158.09619	390.42398	610.33215	1153.47217	76.03977	1353.06458	1090.65247	78.43522	571.17804	1235.58386	304.68845	1540.46191	1128.3772	228.43527	1397.66199	1145.74268	107.44719	340.39584	1484.33752	134.86961	300.1991	1652.11548	144.23685	158.49788	1647.84802	175.23778	1545.10938	1128.27856	349.77548	248.50089	1187.36963	291.93802	1257.3147	1258.9989	174.76863	341.13727	1672.89648	296.26425	86.90623	1277.21777	229.34282	1115.68469	1058.15271	256.21796	77.29131	1328.63074	278.789	30.90359	1135.82739	205.78581	1095.93091	1263.61877	-35.33705	1198.85999	1161.74133	176.12497	1588.27222	990.69684	119.83201	951.08917	1284.01868	287.02313	966.10785	1298.54956	118.81687	886.83441	1139.86414	-8.99865	1037.87903	1121.24243	78.31028	999.8808	1053.84912	124.24255	1019.89404	980.52454	-74.76549	1113.52515	1208.28906	NaN	NaN	NaN	234.30717	1635.45435	1087.96094	NaN	NaN	NaN	NaN	NaN	NaN	NaN	NaN	NaN	NaN	NaN	NaN	NaN	NaN	NaN
